<svg id="Art" xmlns="http://www.w3.org/2000/svg" xmlns:xlink="http://www.w3.org/1999/xlink" viewBox="0 0 708 252"><defs><style>.cls-1,.cls-10,.cls-4,.cls-6,.cls-7,.cls-8{fill:none;}.cls-12,.cls-2{fill:#fff;}.cls-3{fill:#8c8c8c;}.cls-4,.cls-7{stroke:#666;}.cls-5{fill:#666;}.cls-6{stroke:#fff;stroke-width:3px;}.cls-6,.cls-7{stroke-linejoin:bevel;}.cls-8{stroke:#e9789c;}.cls-10,.cls-12,.cls-8{stroke-miterlimit:10;}.cls-9{clip-path:url(#clip-path);}.cls-10,.cls-12{stroke:#8c8c8c;}.cls-11{clip-path:url(#clip-path-2);}.cls-12{stroke-width:2px;}</style><clipPath id="clip-path"><rect class="cls-1" x="78" y="472" width="234" height="276"/></clipPath><clipPath id="clip-path-2"><rect class="cls-1" x="378" y="471" width="234" height="276"/></clipPath></defs><title>Layout_Size_Classes</title><path class="cls-2" d="M201.61,251a8.63,8.63,0,0,1-8.61-8.62V119.79a8.79,8.79,0,0,1,8.78-8.79h50.44a8.79,8.79,0,0,1,8.78,8.79V242.38a8.63,8.63,0,0,1-8.61,8.62Z"/><path class="cls-3" d="M252.22,112a7.79,7.79,0,0,1,7.78,7.79V242.38a7.62,7.62,0,0,1-7.61,7.62H201.61a7.62,7.62,0,0,1-7.61-7.62V119.79a7.79,7.79,0,0,1,7.78-7.79h50.44m0-2H201.78a9.78,9.78,0,0,0-9.78,9.79V242.38a9.62,9.62,0,0,0,9.61,9.62h50.78a9.62,9.62,0,0,0,9.61-9.62V119.79a9.78,9.78,0,0,0-9.78-9.79Z"/><path class="cls-3" d="M233.32,115.61a1.17,1.17,0,1,1,1.17,1.17,1.17,1.17,0,0,1-1.17-1.17"/><path class="cls-3" d="M230.72,116.12H223.9a.65.65,0,0,1-.41-.09.49.49,0,0,1-.18-.38.46.46,0,0,1,.18-.37.66.66,0,0,1,.41-.1h6.82a.66.66,0,0,1,.41.1.47.47,0,0,1,.19.37.5.5,0,0,1-.19.38A.65.65,0,0,1,230.72,116.12Z"/><rect class="cls-3" x="191.5" y="129" width="1" height="5"/><rect class="cls-3" x="191.5" y="152" width="1" height="10"/><rect class="cls-3" x="261.5" y="143" width="1" height="16"/><rect class="cls-3" x="191.5" y="139" width="1" height="10"/><line class="cls-4" x1="256" y1="183" x2="198" y2="183"/><path class="cls-5" d="M249.91,178.68a.44.44,0,0,0,.13.62l5.81,3.7L250,186.7a.44.44,0,0,0-.13.62.45.45,0,0,0,.62.14l6.4-4.08a.45.45,0,0,0,0-.76l-6.4-4.08a.44.44,0,0,0-.24-.07A.45.45,0,0,0,249.91,178.68Z"/><path class="cls-5" d="M204.09,178.68a.44.44,0,0,1-.13.62l-5.81,3.7,5.81,3.7a.44.44,0,0,1,.13.62.45.45,0,0,1-.62.14l-6.4-4.08a.45.45,0,0,1,0-.76l6.4-4.08a.44.44,0,0,1,.24-.07A.45.45,0,0,1,204.09,178.68Z"/><line class="cls-6" x1="252" y1="247.5" x2="277.25" y2="247.5"/><line class="cls-7" x1="252" y1="247.5" x2="277.25" y2="247.5"/><line class="cls-6" x1="252" y1="114.5" x2="277.75" y2="114.5"/><line class="cls-7" x1="252" y1="114.5" x2="277.75" y2="114.5"/><line class="cls-4" x1="271.5" y1="116.25" x2="271.5" y2="246.25"/><path class="cls-5" d="M267.18,122.34a.44.44,0,0,0,.62-.13l3.7-5.81,3.7,5.81a.44.44,0,0,0,.62.13.45.45,0,0,0,.14-.62l-4.08-6.4a.45.45,0,0,0-.76,0l-4.08,6.4a.44.44,0,0,0-.07.24A.45.45,0,0,0,267.18,122.34Z"/><path class="cls-5" d="M267.18,240.16a.44.44,0,0,1,.62.13l3.7,5.81,3.7-5.81a.44.44,0,0,1,.62-.13.45.45,0,0,1,.14.62l-4.08,6.4a.45.45,0,0,1-.76,0l-4.08-6.4a.44.44,0,0,1-.07-.24A.45.45,0,0,1,267.18,240.16Z"/><path class="cls-8" d="M245.41,114.5a1.06,1.06,0,0,0-1.3,1.24,3.93,3.93,0,0,1-.11,1,3.65,3.65,0,0,1-.91,1.79,3.08,3.08,0,0,1-1.67.83,7.55,7.55,0,0,1-1.84.16H214.26a7.55,7.55,0,0,1-1.84-.16,3.08,3.08,0,0,1-1.67-.83,3.65,3.65,0,0,1-.91-1.79,3.51,3.51,0,0,1-.11-1,1.19,1.19,0,0,0-.22-.86,1.26,1.26,0,0,0-1.08-.38h-6.15a5.78,5.78,0,0,0-5.78,5.78V241.72a5.78,5.78,0,0,0,5.78,5.78h49.44a5.78,5.78,0,0,0,5.78-5.78V120.28a5.78,5.78,0,0,0-5.78-5.78Z"/><path class="cls-2" d="M575.79,251a8.79,8.79,0,0,1-8.79-8.78V191.78a8.79,8.79,0,0,1,8.79-8.78H698.38a8.63,8.63,0,0,1,8.62,8.61v50.78a8.63,8.63,0,0,1-8.62,8.61Z"/><path class="cls-3" d="M698.38,184a7.62,7.62,0,0,1,7.62,7.61v50.78a7.62,7.62,0,0,1-7.62,7.61H575.79a7.79,7.79,0,0,1-7.79-7.78V191.78a7.79,7.79,0,0,1,7.79-7.78H698.38m0-2H575.79a9.78,9.78,0,0,0-9.79,9.78v50.44a9.78,9.78,0,0,0,9.79,9.78H698.38a9.62,9.62,0,0,0,9.62-9.61V191.61a9.62,9.62,0,0,0-9.62-9.61Z"/><path class="cls-3" d="M571.61,210.68a1.17,1.17,0,1,1,1.17-1.17,1.17,1.17,0,0,1-1.17,1.17"/><path class="cls-3" d="M572.12,213.28v6.82a.65.65,0,0,1-.09.41.49.49,0,0,1-.38.18.46.46,0,0,1-.37-.18.66.66,0,0,1-.1-.41v-6.82a.66.66,0,0,1,.1-.41.47.47,0,0,1,.37-.19.5.5,0,0,1,.38.19A.65.65,0,0,1,572.12,213.28Z"/><rect class="cls-3" x="585" y="251.5" width="5" height="1"/><rect class="cls-3" x="608" y="251.5" width="10" height="1"/><rect class="cls-3" x="599" y="181.5" width="16" height="1"/><rect class="cls-3" x="595" y="251.5" width="10" height="1"/><line class="cls-6" x1="570.5" y1="191" x2="570.5" y2="163.5"/><line class="cls-7" x1="570.5" y1="191" x2="570.5" y2="163.5"/><line class="cls-6" x1="703.5" y1="191" x2="703.5" y2="163"/><line class="cls-7" x1="703.5" y1="191" x2="703.5" y2="163"/><line class="cls-4" x1="702" y1="169.5" x2="572" y2="169.5"/><path class="cls-5" d="M695.91,165.18a.44.44,0,0,0,.13.62l5.81,3.7L696,173.2a.44.44,0,0,0-.13.62.45.45,0,0,0,.62.14l6.4-4.08a.45.45,0,0,0,0-.76l-6.4-4.08a.44.44,0,0,0-.24-.07A.45.45,0,0,0,695.91,165.18Z"/><path class="cls-5" d="M578.09,165.18a.44.44,0,0,1-.13.62l-5.81,3.7,5.81,3.7a.44.44,0,0,1,.13.62.45.45,0,0,1-.62.14l-6.4-4.08a.45.45,0,0,1,0-.76l6.4-4.08a.44.44,0,0,1,.24-.07A.45.45,0,0,1,578.09,165.18Z"/><path class="cls-8" d="M570.5,198.59a1.06,1.06,0,0,0,1.24,1.3,3.93,3.93,0,0,1,1,.11,3.65,3.65,0,0,1,1.79.91,3.08,3.08,0,0,1,.83,1.67,7.55,7.55,0,0,1,.16,1.84v25.32a7.55,7.55,0,0,1-.16,1.84,3.08,3.08,0,0,1-.83,1.67,3.65,3.65,0,0,1-1.79.91,3.51,3.51,0,0,1-1,.11,1.19,1.19,0,0,0-.86.22,1.26,1.26,0,0,0-.38,1.08v6.15a5.78,5.78,0,0,0,5.78,5.78H697.72a5.78,5.78,0,0,0,5.78-5.78V192.28a5.78,5.78,0,0,0-5.78-5.78H576.28a5.78,5.78,0,0,0-5.78,5.78Z"/><line class="cls-4" x1="636.5" y1="188" x2="636.5" y2="246"/><path class="cls-5" d="M632.18,194.09a.44.44,0,0,0,.62-.13l3.7-5.81,3.7,5.81a.44.44,0,0,0,.62.13.45.45,0,0,0,.14-.62l-4.08-6.4a.45.45,0,0,0-.76,0l-4.08,6.4a.44.44,0,0,0-.07.24A.45.45,0,0,0,632.18,194.09Z"/><path class="cls-5" d="M632.18,239.91a.44.44,0,0,1,.62.13l3.7,5.81,3.7-5.81a.44.44,0,0,1,.62-.13.45.45,0,0,1,.14.62l-4.08,6.4a.45.45,0,0,1-.76,0l-4.08-6.4a.44.44,0,0,1-.07-.24A.45.45,0,0,1,632.18,239.91Z"/><g class="cls-9"><path class="cls-2" d="M113,705.5A34.55,34.55,0,0,1,78.5,671V260a32.38,32.38,0,0,1,32.18-32.51H279.32A32.38,32.38,0,0,1,311.5,260V671A34.55,34.55,0,0,1,277,705.5Z"/><path class="cls-3" d="M279.32,228A31.88,31.88,0,0,1,311,260V671a34.05,34.05,0,0,1-34,34H113a34.05,34.05,0,0,1-34-34V260a31.88,31.88,0,0,1,31.68-32H279.32m0-1H110.68A32.85,32.85,0,0,0,78,260V671a35,35,0,0,0,35,35H277a35,35,0,0,0,35-35V260a32.85,32.85,0,0,0-32.68-33Z"/><path class="cls-10" d="M277.22,231.5H112.78A30.48,30.48,0,0,0,82.5,262.17V670.83a30.48,30.48,0,0,0,30.28,30.67H277.22a30.48,30.48,0,0,0,30.28-30.67V262.17A30.48,30.48,0,0,0,277.22,231.5Z"/><path class="cls-3" d="M216.29,249.67a3.88,3.88,0,1,1,3.88,3.88,3.89,3.89,0,0,1-3.88-3.88"/><path class="cls-3" d="M206.3,252H182.78a1.87,1.87,0,0,1-1.4-.41,2.27,2.27,0,0,1,0-3.18,1.87,1.87,0,0,1,1.4-.41H206.3a1.87,1.87,0,0,1,1.4.41,2.27,2.27,0,0,1,0,3.18A1.87,1.87,0,0,1,206.3,252Z"/><path class="cls-10" d="M257.07,241.5a4.26,4.26,0,0,0-3.61,1.14,4,4,0,0,0-.75,2.84,10.83,10.83,0,0,1-.36,3.13,11.66,11.66,0,0,1-3,5.72,10.39,10.39,0,0,1-5.58,2.67,27.32,27.32,0,0,1-6.14.5H154.64a27.37,27.37,0,0,1-6.14-.5,10.42,10.42,0,0,1-5.58-2.67,11.64,11.64,0,0,1-3-5.72,10.5,10.5,0,0,1-.37-3.13,3.76,3.76,0,0,0-.75-2.77,4.3,4.3,0,0,0-3.6-1.21H112A19.5,19.5,0,0,0,92.5,261V669.5a22,22,0,0,0,22,22h161a22,22,0,0,0,22-22V261A19.5,19.5,0,0,0,278,241.5Z"/></g><g class="cls-11"><path class="cls-2" d="M413,705.5A34.55,34.55,0,0,1,378.5,671V260a32.38,32.38,0,0,1,32.18-32.51H579.32A32.38,32.38,0,0,1,611.5,260V671A34.55,34.55,0,0,1,577,705.5Z"/><path class="cls-3" d="M579.32,228A31.88,31.88,0,0,1,611,260V671a34.05,34.05,0,0,1-34,34H413a34.05,34.05,0,0,1-34-34V260a31.88,31.88,0,0,1,31.68-32H579.32m0-1H410.68A32.85,32.85,0,0,0,378,260V671a35,35,0,0,0,35,35H577a35,35,0,0,0,35-35V260a32.85,32.85,0,0,0-32.68-33Z"/><path class="cls-10" d="M577.22,231.5H412.78a30.48,30.48,0,0,0-30.28,30.67V670.83a30.48,30.48,0,0,0,30.28,30.67H577.22a30.48,30.48,0,0,0,30.28-30.67V262.17A30.48,30.48,0,0,0,577.22,231.5Z"/><path class="cls-3" d="M516.29,249.67a3.88,3.88,0,1,1,3.88,3.88,3.89,3.89,0,0,1-3.88-3.88"/><path class="cls-3" d="M506.3,252H482.78a1.87,1.87,0,0,1-1.4-.41,2.27,2.27,0,0,1,0-3.18,1.87,1.87,0,0,1,1.4-.41H506.3a1.87,1.87,0,0,1,1.4.41,2.27,2.27,0,0,1,0,3.18A1.87,1.87,0,0,1,506.3,252Z"/><path class="cls-10" d="M557.07,241.5a4.26,4.26,0,0,0-3.61,1.14,4,4,0,0,0-.75,2.84,10.83,10.83,0,0,1-.36,3.13,11.66,11.66,0,0,1-3.05,5.72,10.39,10.39,0,0,1-5.58,2.67,27.32,27.32,0,0,1-6.14.5H454.64a27.37,27.37,0,0,1-6.14-.5,10.42,10.42,0,0,1-5.58-2.67,11.64,11.64,0,0,1-3-5.72,10.5,10.5,0,0,1-.37-3.13,3.76,3.76,0,0,0-.75-2.77,4.3,4.3,0,0,0-3.6-1.21H412A19.5,19.5,0,0,0,392.5,261V669.5a22,22,0,0,0,22,22h161a22,22,0,0,0,22-22V261A19.5,19.5,0,0,0,578,241.5Z"/></g><path class="cls-3" d="M182.65,22h-.3a.35.35,0,0,0-.35.35v9.3a.35.35,0,0,0,.35.35h.3a.35.35,0,0,0,.35-.35v-9.3a.35.35,0,0,0-.35-.35Z"/><path class="cls-3" d="M182.65,37h-.3a.35.35,0,0,0-.35.35v9.3a.35.35,0,0,0,.35.35h.3a.35.35,0,0,0,.35-.35v-9.3a.35.35,0,0,0-.35-.35Z"/><path class="cls-3" d="M166.65,1h-11.2a.35.35,0,0,0-.35.35v.3a.35.35,0,0,0,.35.35h11.2a.35.35,0,0,0,.35-.35v-.3a.35.35,0,0,0-.35-.35Z"/><path class="cls-12" d="M1,235.54a34.77,34.77,0,0,0,.37,5.7,11,11,0,0,0,6.07,8.32A17.15,17.15,0,0,0,14.54,251c1.38,0,2.37.05,4.8.05H162.66c2.34,0,3.42,0,4.8-.05a17.15,17.15,0,0,0,7.08-1.39,11,11,0,0,0,6.07-8.32,34.77,34.77,0,0,0,.37-5.7c0-2.73,0-186.45,0-200.27s0-14.08,0-16.82a34.72,34.72,0,0,0-.37-5.69,11,11,0,0,0-6.07-8.32,16.83,16.83,0,0,0-7.08-1.39c-1.38,0-2.46,0-4.8,0H19.34c-2.34,0-3.42,0-4.8,0A17.15,17.15,0,0,0,7.46,4.44a11,11,0,0,0-6.07,8.32A33.3,33.3,0,0,0,1,18.43Z"/><path class="cls-8" d="M9.5,238.79V15.18a3.71,3.71,0,0,1,3.7-3.68H168.93a3.57,3.57,0,0,1,3.57,3.55V238.82a3.71,3.71,0,0,1-3.7,3.68H13.23A3.73,3.73,0,0,1,9.5,238.79Z"/><line class="cls-4" x1="171" y1="130.5" x2="11" y2="130.5"/><path class="cls-5" d="M164.91,126.18a.44.44,0,0,0,.13.62l5.81,3.7L165,134.2a.44.44,0,0,0-.13.62.45.45,0,0,0,.62.14l6.4-4.08a.45.45,0,0,0,0-.76l-6.4-4.08a.44.44,0,0,0-.24-.07A.45.45,0,0,0,164.91,126.18Z"/><path class="cls-5" d="M17.09,126.18a.44.44,0,0,1-.13.62l-5.81,3.7L17,134.2a.44.44,0,0,1,.13.62.45.45,0,0,1-.62.14l-6.4-4.08a.45.45,0,0,1,0-.76l6.4-4.08a.44.44,0,0,1,.24-.07A.45.45,0,0,1,17.09,126.18Z"/><line class="cls-4" x1="90.5" y1="13" x2="90.5" y2="241"/><path class="cls-5" d="M86.18,19.09A.44.44,0,0,0,86.8,19l3.7-5.81L94.2,19a.44.44,0,0,0,.62.13.45.45,0,0,0,.14-.62l-4.08-6.4a.45.45,0,0,0-.76,0L86,18.47a.44.44,0,0,0-.07.24A.45.45,0,0,0,86.18,19.09Z"/><path class="cls-5" d="M86.18,234.91a.44.44,0,0,1,.62.13l3.7,5.81L94.2,235a.44.44,0,0,1,.62-.13.45.45,0,0,1,.14.62l-4.08,6.4a.45.45,0,0,1-.76,0L86,235.53a.44.44,0,0,1-.07-.24A.45.45,0,0,1,86.18,234.91Z"/><path class="cls-3" d="M335.65,70h-9.3a.35.35,0,0,0-.35.35v.3a.35.35,0,0,0,.35.35h9.3a.35.35,0,0,0,.35-.35v-.3a.35.35,0,0,0-.35-.35Z"/><path class="cls-3" d="M350.65,70h-9.3a.35.35,0,0,0-.35.35v.3a.35.35,0,0,0,.35.35h9.3a.35.35,0,0,0,.35-.35v-.3a.35.35,0,0,0-.35-.35Z"/><path class="cls-3" d="M305.65,86h-.3a.35.35,0,0,0-.35.35v11.2a.35.35,0,0,0,.35.35h.3a.35.35,0,0,0,.35-.35V86.35a.35.35,0,0,0-.35-.35Z"/><path class="cls-12" d="M539.54,252a34.77,34.77,0,0,0,5.7-.37,11,11,0,0,0,8.32-6.07,17.15,17.15,0,0,0,1.39-7.08c0-1.38,0-2.37,0-4.8V90.34c0-2.34,0-3.42,0-4.8a17.15,17.15,0,0,0-1.39-7.08,11,11,0,0,0-8.32-6.07,34.77,34.77,0,0,0-5.7-.37c-2.73,0-186.45,0-200.27,0s-14.08,0-16.82,0a34.72,34.72,0,0,0-5.69.37,11,11,0,0,0-8.32,6.07,16.83,16.83,0,0,0-1.39,7.08C307,86.92,307,88,307,90.34V233.66c0,2.34,0,3.42.05,4.8a17.15,17.15,0,0,0,1.39,7.08,11,11,0,0,0,8.32,6.07,33.3,33.3,0,0,0,5.67.39Z"/><path class="cls-8" d="M542.79,243.5H319.18a3.71,3.71,0,0,1-3.68-3.7V84.07a3.57,3.57,0,0,1,3.55-3.57H542.82a3.71,3.71,0,0,1,3.68,3.7V239.77A3.73,3.73,0,0,1,542.79,243.5Z"/><line class="cls-4" x1="545" y1="161.5" x2="317" y2="161.5"/><path class="cls-5" d="M538.91,157.18a.44.44,0,0,0,.13.62l5.81,3.7L539,165.2a.44.44,0,0,0-.13.62.45.45,0,0,0,.62.14l6.4-4.08a.45.45,0,0,0,0-.76l-6.4-4.08a.44.44,0,0,0-.24-.07A.45.45,0,0,0,538.91,157.18Z"/><path class="cls-5" d="M323.09,157.18a.44.44,0,0,1-.13.62l-5.81,3.7,5.81,3.7a.44.44,0,0,1,.13.62.45.45,0,0,1-.62.14l-6.4-4.08a.45.45,0,0,1,0-.76l6.4-4.08a.44.44,0,0,1,.24-.07A.45.45,0,0,1,323.09,157.18Z"/><line class="cls-4" x1="430.5" y1="82" x2="430.5" y2="242"/><path class="cls-5" d="M426.18,88.09a.44.44,0,0,0,.62-.13l3.7-5.81L434.2,88a.44.44,0,0,0,.62.13.45.45,0,0,0,.14-.62l-4.08-6.4a.45.45,0,0,0-.76,0L426,87.47a.44.44,0,0,0-.07.24A.45.45,0,0,0,426.18,88.09Z"/><path class="cls-5" d="M426.18,235.91a.44.44,0,0,1,.62.13l3.7,5.81,3.7-5.81a.44.44,0,0,1,.62-.13.45.45,0,0,1,.14.62l-4.08,6.4a.45.45,0,0,1-.76,0l-4.08-6.4a.44.44,0,0,1-.07-.24A.45.45,0,0,1,426.18,235.91Z"/></svg>